<svg xmlns="http://www.w3.org/2000/svg" width="512" height="512" viewBox="0 0 512 512">
  <rect width="512" height="512" rx="64" fill="#7c3aed"/>
  <path d="M256 96c-88.366 0-160 71.634-160 160s71.634 160 160 160 160-71.634 160-160S344.366 96 256 96zm0 24c75.111 0 136 60.889 136 136s-60.889 136-136 136-136-60.889-136-136 60.889-136 136-136z" fill="white"/>
  <path d="M256 168c-48.601 0-88 39.399-88 88s39.399 88 88 88 88-39.399 88-88-39.399-88-88-88zm0 24c35.346 0 64 28.654 64 64s-28.654 64-64 64-64-28.654-64-64 28.654-64 64-64z" fill="white"/>
  <circle cx="256" cy="256" r="32" fill="white"/>
  <text x="256" y="440" text-anchor="middle" fill="white" font-family="Arial, sans-serif" font-size="48" font-weight="bold">CareBridge</text>
</svg>
